<svg viewBox="0 0 600 200" xmlns="http://www.w3.org/2000/svg" xmlns:xlink="http://www.w3.org/1999/xlink" id="Camada_1" overflow="hidden"><defs></defs><g><g><path d="M149.53 87.05 149.53 43.75 164.87 43.75C169.44 43.75 173.34 44.6 176.58 46.3 179.82 48.01 182.29 50.47 184.01 53.7 185.73 56.93 186.58 60.8 186.58 65.33 186.58 69.86 185.72 73.89 183.99 77.12 182.26 80.35 179.78 82.81 176.54 84.5 173.3 86.19 169.41 87.04 164.86 87.04L149.52 87.04ZM156.93 80.84 163.72 80.84C167.17 80.84 170.02 80.27 172.26 79.15 174.5 78.02 176.18 76.31 177.29 74.02 178.4 71.73 178.96 68.82 178.96 65.3 178.96 61.78 178.38 59.02 177.22 56.74 176.06 54.46 174.35 52.77 172.09 51.64 169.83 50.52 167.04 49.95 163.71 49.95L156.92 49.95 156.92 80.83Z" fill="#004539"/><path d="M208.56 87.63C205.13 87.63 202.27 86.95 199.99 85.59 197.71 84.23 196 82.32 194.86 79.86 193.72 77.4 193.16 74.56 193.16 71.32 193.16 68.08 193.71 65.22 194.82 62.81 195.93 60.39 197.57 58.52 199.77 57.18 201.97 55.84 204.72 55.17 208.02 55.17 212.48 55.17 216 56.5 218.57 59.16 221.14 61.82 222.43 65.62 222.43 70.55 222.43 70.85 222.41 71.22 222.38 71.66 222.35 72.1 222.31 72.42 222.27 72.61L200.11 72.61C200.13 74.39 200.43 76.02 200.99 77.51 201.56 79 202.47 80.2 203.71 81.1 204.95 82 206.57 82.45 208.57 82.45 210.71 82.45 212.4 81.97 213.62 81.02 214.84 80.06 215.49 78.65 215.55 76.79L222.4 76.79C222.29 79.11 221.66 81.07 220.52 82.69 219.37 84.31 217.79 85.53 215.76 86.37 213.73 87.21 211.34 87.62 208.57 87.62ZM200.16 67.95 215.5 67.95C215.44 65.42 214.73 63.49 213.39 62.18 212.05 60.86 210.25 60.2 208 60.2 205.75 60.2 203.85 60.87 202.48 62.19 201.11 63.51 200.34 65.44 200.15 67.95Z" fill="#004539"/><path d="M230.49 87.05 230.49 55.69 237.18 55.69 237.34 60.45C238.37 59.14 239.76 57.95 241.52 56.86 243.28 55.78 245.54 55.24 248.31 55.24 251.63 55.24 254.13 56.23 255.79 58.21 257.45 60.2 258.28 63.03 258.28 66.72L258.28 87.05 251.33 87.05 251.33 67.65C251.33 66.32 251.17 65.15 250.85 64.13 250.53 63.11 249.99 62.32 249.23 61.75 248.47 61.18 247.42 60.9 246.09 60.9 244.08 60.9 242.36 61.36 240.96 62.3 239.56 63.23 238.39 64.29 237.47 65.47L237.47 87.05 230.49 87.05Z" fill="#004539"/><path d="M279.64 87.05C276.79 87.05 274.59 86.66 273.05 85.87 271.51 85.09 270.44 83.92 269.85 82.37 269.26 80.81 268.97 78.87 268.97 76.53L268.97 61.15 263.73 61.15 263.73 55.68 268.97 55.68 268.97 48.38 275.89 48.38 275.89 55.68 283.19 55.68 283.19 61.15 275.89 61.15 275.89 76.11C275.89 77.91 276.13 79.27 276.61 80.2 277.09 81.13 278.22 81.58 280 81.58L283.18 81.58 283.18 87.05 279.64 87.05Z" fill="#004539"/><path d="M290.06 87.05 290.06 55.69 296.69 55.69 296.85 61.06C297.71 59.32 298.94 57.93 300.53 56.86 302.13 55.8 304.14 55.27 306.56 55.27L307.17 55.27 307.17 61.35 306.43 61.35C304.99 61.35 303.69 61.51 302.52 61.81 301.35 62.12 300.32 62.6 299.42 63.23 298.52 63.86 297.73 64.65 297.04 65.6L297.04 87.05 290.06 87.05Z" fill="#004539"/><path d="M325.93 87.57C322.82 87.57 320.12 86.93 317.84 85.66 315.56 84.38 313.8 82.54 312.56 80.13 311.33 77.71 310.71 74.83 310.71 71.46 310.71 68.09 311.33 65.09 312.56 62.65 313.79 60.21 315.55 58.34 317.84 57.05 320.13 55.76 322.82 55.12 325.93 55.12 329.04 55.12 331.88 55.76 334.18 57.05 336.48 58.34 338.27 60.2 339.52 62.65 340.77 65.1 341.4 68.03 341.4 71.46 341.4 74.89 340.77 77.71 339.52 80.13 338.27 82.54 336.48 84.39 334.18 85.66 331.88 86.93 329.13 87.57 325.93 87.57ZM325.93 82.16C328.03 82.16 329.69 81.69 330.92 80.74 332.15 79.79 333.01 78.52 333.53 76.9 334.04 75.28 334.3 73.46 334.3 71.45 334.3 69.44 334.04 67.53 333.53 65.89 333.02 64.25 332.15 62.94 330.92 61.98 329.7 61.02 328.04 60.55 325.93 60.55 323.82 60.55 322.32 61.03 321.14 61.98 319.96 62.93 319.11 64.24 318.6 65.89 318.09 67.54 317.83 69.4 317.83 71.45 317.83 73.5 318.09 75.28 318.6 76.9 319.11 78.52 319.96 79.8 321.14 80.74 322.32 81.68 323.92 82.16 325.93 82.16Z" fill="#004539"/><g><path d="M377.68 87.6C375.24 87.6 373.08 87 371.2 85.8 369.32 84.6 367.86 82.78 366.81 80.35 365.76 77.92 365.23 74.88 365.23 71.23 365.23 67.58 365.79 64.64 366.92 62.27 368.05 59.9 369.6 58.13 371.58 56.93 373.56 55.74 375.85 55.15 378.45 55.15 380.64 55.15 382.54 55.62 384.14 56.57 385.74 57.52 387.03 58.77 388 60.33L388 43.76 394.95 43.76 394.95 87.06 388.36 87.06 388.01 82.56C386.9 84.08 385.49 85.3 383.8 86.23 382.11 87.16 380.07 87.61 377.69 87.61ZM379.48 82.16C381.54 82.16 383.28 81.64 384.69 80.6 386.11 79.56 387.21 78.33 388 76.89L388 66.24C387.25 64.67 386.21 63.34 384.9 62.24 383.58 61.13 381.95 60.58 379.99 60.58 377.5 60.58 375.6 61.49 374.3 63.33 372.99 65.16 372.34 67.78 372.34 71.19 372.34 74.83 372.96 77.57 374.19 79.41 375.42 81.24 377.19 82.16 379.48 82.16Z" fill="#004539"/><path d="M413 87.6C411.2 87.6 409.54 87.26 408.03 86.58 406.52 85.91 405.3 84.89 404.38 83.53 403.46 82.17 403 80.47 403 78.43 403 75.58 403.87 73.42 405.62 71.96 407.37 70.5 409.82 69.51 412.99 68.97 416.16 68.43 419.86 68.13 424.1 68.07L424.1 66.14C424.1 63.8 423.52 62.19 422.36 61.32 421.2 60.45 419.73 60 417.95 60 416.02 60 414.41 60.47 413.13 61.42 411.85 62.37 411.2 63.87 411.2 65.96L404.61 65.96C404.61 63.35 405.17 61.25 406.3 59.67 407.43 58.09 408.99 56.95 411 56.24 413.01 55.53 415.33 55.18 417.96 55.18 419.74 55.18 421.41 55.34 422.98 55.66 424.55 55.98 425.92 56.54 427.11 57.35 428.3 58.15 429.23 59.26 429.91 60.66 430.59 62.07 430.92 63.86 430.92 66.05L430.92 87.05 424.42 87.05 424.16 82.64C422.79 84.18 421.18 85.4 419.35 86.27 417.52 87.14 415.4 87.59 413 87.59ZM415.09 82.65C416.98 82.65 418.69 82.19 420.24 81.27 421.79 80.35 423.05 79.22 424.04 77.89L424.04 72.2C418.94 72.22 415.31 72.69 413.17 73.62 411.03 74.54 409.95 76.03 409.95 78.09 409.95 79.55 410.4 80.67 411.32 81.47 412.24 82.27 413.49 82.66 415.1 82.66Z" fill="#004539"/></g><g><path d="M454.69 87.05 454.69 43.75 462.09 43.75 462.09 80.58 481.33 80.58 481.33 87.05 454.7 87.05Z" fill="#004539"/><path d="M501.46 87.63C498.03 87.63 495.17 86.95 492.89 85.59 490.61 84.23 488.9 82.32 487.76 79.86 486.62 77.4 486.06 74.56 486.06 71.32 486.06 68.08 486.61 65.22 487.72 62.81 488.83 60.39 490.47 58.52 492.67 57.18 494.87 55.84 497.62 55.17 500.92 55.17 505.38 55.17 508.9 56.5 511.47 59.16 514.04 61.82 515.33 65.62 515.33 70.55 515.33 70.85 515.31 71.22 515.28 71.66 515.25 72.1 515.21 72.42 515.17 72.61L493.01 72.61C493.03 74.39 493.33 76.02 493.89 77.51 494.46 79 495.37 80.2 496.61 81.1 497.85 82 499.47 82.45 501.47 82.45 503.61 82.45 505.3 81.97 506.52 81.02 507.74 80.06 508.39 78.65 508.45 76.79L515.3 76.79C515.19 79.11 514.56 81.07 513.42 82.69 512.27 84.31 510.69 85.53 508.66 86.37 506.63 87.21 504.24 87.62 501.47 87.62ZM493.07 67.95 508.41 67.95C508.35 65.42 507.64 63.49 506.3 62.18 504.96 60.86 503.16 60.2 500.91 60.2 498.66 60.2 496.76 60.87 495.39 62.19 494.03 63.52 493.25 65.44 493.06 67.95Z" fill="#004539"/><path d="M526.9 50.67C525.59 50.67 524.58 50.33 523.88 49.64 523.18 48.95 522.82 48.1 522.82 47.07 522.82 46.04 523.17 45.12 523.88 44.43 524.59 43.74 525.6 43.4 526.9 43.4 528.2 43.4 529.19 43.74 529.91 44.43 530.63 45.12 530.99 45.98 530.99 47.04 530.99 48.1 530.63 48.96 529.91 49.65 529.19 50.34 528.19 50.68 526.9 50.68ZM523.4 87.05 523.4 55.69 530.38 55.69 530.38 87.05 523.4 87.05Z" fill="#004539"/></g><path d="M149.53 156.05 149.53 112.75 177.16 112.75 177.16 118.93 156.93 118.93 156.93 130.9 175.14 130.9 175.14 136.85 156.93 136.85 156.93 156.05 149.53 156.05Z" fill="#004539"/><path d="M196.75 156.56C193.64 156.56 190.94 155.92 188.66 154.65 186.38 153.37 184.62 151.53 183.38 149.12 182.15 146.7 181.53 143.82 181.53 140.45 181.53 137.08 182.15 134.08 183.38 131.64 184.61 129.2 186.37 127.33 188.66 126.04 190.95 124.75 193.64 124.11 196.75 124.11 199.86 124.11 202.7 124.75 205 126.04 207.3 127.33 209.09 129.19 210.34 131.64 211.59 134.09 212.22 137.02 212.22 140.45 212.22 143.88 211.59 146.7 210.34 149.12 209.09 151.53 207.3 153.38 205 154.65 202.7 155.92 199.95 156.56 196.75 156.56ZM196.75 151.16C198.85 151.16 200.51 150.69 201.74 149.74 202.97 148.79 203.83 147.52 204.35 145.9 204.86 144.28 205.12 142.46 205.12 140.45 205.12 138.44 204.86 136.53 204.35 134.89 203.84 133.25 202.97 131.94 201.74 130.98 200.52 130.02 198.86 129.55 196.75 129.55 194.64 129.55 193.14 130.03 191.96 130.98 190.78 131.93 189.93 133.24 189.42 134.89 188.91 136.54 188.65 138.4 188.65 140.45 188.65 142.5 188.91 144.28 189.42 145.9 189.93 147.52 190.78 148.8 191.96 149.74 193.14 150.68 194.74 151.16 196.75 151.16Z" fill="#004539"/><path d="M220.26 156.05 220.26 124.69 226.89 124.69 227.05 130.06C227.91 128.32 229.14 126.93 230.73 125.86 232.33 124.8 234.34 124.27 236.76 124.27L237.37 124.27 237.37 130.35 236.63 130.35C235.19 130.35 233.89 130.51 232.72 130.81 231.55 131.12 230.52 131.6 229.62 132.23 228.72 132.86 227.93 133.65 227.24 134.6L227.24 156.05 220.26 156.05Z" fill="#004539"/><path d="M249.79 156.6C247.99 156.6 246.33 156.26 244.82 155.58 243.31 154.91 242.09 153.89 241.17 152.53 240.25 151.17 239.79 149.47 239.79 147.43 239.79 144.58 240.66 142.42 242.41 140.96 244.16 139.5 246.61 138.51 249.78 137.97 252.94 137.43 256.65 137.13 260.89 137.07L260.89 135.14C260.89 132.8 260.31 131.19 259.15 130.32 257.99 129.45 256.52 129 254.74 129 252.81 129 251.2 129.47 249.92 130.42 248.64 131.37 247.99 132.87 247.99 134.96L241.4 134.96C241.4 132.35 241.96 130.25 243.09 128.67 244.22 127.09 245.78 125.95 247.79 125.24 249.8 124.53 252.12 124.18 254.75 124.18 256.53 124.18 258.2 124.34 259.77 124.66 261.34 124.98 262.71 125.54 263.9 126.35 265.09 127.15 266.02 128.26 266.7 129.66 267.38 131.07 267.71 132.86 267.71 135.05L267.71 156.05 261.21 156.05 260.95 151.64C259.58 153.18 257.97 154.4 256.14 155.27 254.31 156.14 252.19 156.59 249.79 156.59ZM251.88 151.64C253.77 151.64 255.48 151.18 257.03 150.26 258.57 149.34 259.84 148.21 260.83 146.88L260.83 141.19C255.73 141.21 252.1 141.68 249.96 142.61 247.82 143.54 246.74 145.02 246.74 147.08 246.74 148.54 247.19 149.66 248.11 150.46 249.03 151.26 250.28 151.65 251.89 151.65Z" fill="#004539"/><path d="M390.78 156.53C387.89 156.53 385.3 155.96 383.03 154.81 380.76 153.67 378.96 151.9 377.64 149.52 376.32 147.14 375.66 144.13 375.66 140.48 375.66 136.83 376.3 133.77 377.57 131.36 378.85 128.94 380.61 127.14 382.88 125.96 385.14 124.77 387.77 124.17 390.78 124.17 393.31 124.17 395.59 124.59 397.63 125.42 399.67 126.25 401.29 127.51 402.5 129.18 403.71 130.85 404.35 132.97 404.41 135.52L397.62 135.52C397.51 133.7 396.87 132.26 395.69 131.21 394.51 130.16 392.89 129.63 390.83 129.63 388.06 129.63 386.03 130.58 384.72 132.47 383.41 134.37 382.76 137.03 382.76 140.47 382.76 142.7 383.05 144.61 383.63 146.2 384.21 147.79 385.09 149 386.28 149.83 387.47 150.66 388.99 151.08 390.83 151.08 392.93 151.08 394.61 150.52 395.88 149.41 397.15 148.3 397.81 146.69 397.87 144.59L404.66 144.59C404.6 147.2 403.95 149.41 402.73 151.18 401.51 152.95 399.86 154.3 397.79 155.18 395.72 156.07 393.38 156.52 390.76 156.52Z" fill="#004539"/><path d="M422.24 156.5C418.83 156.5 416.29 155.5 414.62 153.51 412.95 151.52 412.11 148.73 412.11 145.15L412.11 124.69 419.06 124.69 419.06 144.28C419.06 145.53 419.22 146.63 419.54 147.59 419.86 148.55 420.43 149.31 421.24 149.86 422.06 150.41 423.18 150.68 424.62 150.68 426.63 150.68 428.35 150.24 429.75 149.38 431.15 148.51 432.33 147.47 433.27 146.27L433.27 124.69 440.22 124.69 440.22 156.05 433.5 156.05 433.37 151.26C432.34 152.57 430.91 153.77 429.09 154.86 427.27 155.95 424.98 156.5 422.24 156.5Z" fill="#004539"/><path d="M449.93 156.05 449.93 124.69 456.56 124.69 456.72 130.06C457.58 128.32 458.81 126.93 460.4 125.86 462 124.8 464.01 124.27 466.43 124.27L467.04 124.27 467.04 130.35 466.3 130.35C464.86 130.35 463.56 130.51 462.39 130.81 461.22 131.12 460.19 131.6 459.29 132.23 458.39 132.86 457.6 133.65 456.91 134.6L456.91 156.05 449.93 156.05Z" fill="#004539"/><path d="M480.94 156.05 469.23 124.69 476.5 124.69 484.83 149.43 493.32 124.69 500.36 124.69 488.75 156.05 480.93 156.05Z" fill="#004539"/><path d="M513.07 156.6C511.27 156.6 509.61 156.26 508.1 155.58 506.59 154.91 505.37 153.89 504.45 152.53 503.53 151.17 503.07 149.47 503.07 147.43 503.07 144.58 503.94 142.42 505.69 140.96 507.44 139.5 509.89 138.51 513.06 137.97 516.22 137.43 519.93 137.13 524.17 137.07L524.17 135.14C524.17 132.8 523.59 131.19 522.43 130.32 521.27 129.45 519.8 129 518.02 129 516.09 129 514.48 129.47 513.2 130.42 511.92 131.37 511.27 132.87 511.27 134.96L504.68 134.96C504.68 132.35 505.24 130.25 506.37 128.67 507.5 127.09 509.06 125.95 511.07 125.24 513.08 124.53 515.4 124.18 518.03 124.18 519.81 124.18 521.48 124.34 523.05 124.66 524.62 124.98 525.99 125.54 527.18 126.35 528.37 127.15 529.3 128.26 529.98 129.66 530.66 131.07 530.99 132.86 530.99 135.05L530.99 156.05 524.49 156.05 524.23 151.64C522.86 153.18 521.25 154.4 519.42 155.27 517.59 156.14 515.47 156.59 513.07 156.59ZM515.16 151.64C517.05 151.64 518.76 151.18 520.31 150.26 521.86 149.34 523.12 148.21 524.11 146.88L524.11 141.19C519.01 141.21 515.38 141.68 513.24 142.61 511.1 143.54 510.02 145.02 510.02 147.08 510.02 148.54 510.47 149.66 511.39 150.46 512.31 151.26 513.56 151.65 515.17 151.65Z" fill="#004539"/><path d="M545.24 156.44C543.82 156.44 542.67 155.99 541.77 155.09 540.87 154.19 540.42 153.09 540.42 151.78 540.42 150.41 540.87 149.29 541.77 148.43 542.67 147.57 543.83 147.14 545.24 147.14 546.65 147.14 547.8 147.57 548.68 148.43 549.56 149.29 550 150.4 550 151.78 550 153.16 549.56 154.19 548.68 155.09 547.8 155.99 546.65 156.44 545.24 156.44Z" fill="#004539"/><path d="M545.24 87.29C543.82 87.29 542.67 86.84 541.77 85.94 540.87 85.04 540.42 83.94 540.42 82.63 540.42 81.26 540.87 80.14 541.77 79.28 542.67 78.42 543.83 77.99 545.24 77.99 546.65 77.99 547.8 78.42 548.68 79.28 549.56 80.14 550 81.25 550 82.63 550 84.01 549.56 85.04 548.68 85.94 547.8 86.84 546.65 87.29 545.24 87.29Z" fill="#004539"/></g><g><path d="M301.29 156.6C298.85 156.6 296.69 156 294.81 154.8 292.93 153.6 291.47 151.78 290.42 149.35 289.37 146.92 288.84 143.88 288.84 140.23 288.84 136.58 289.4 133.64 290.53 131.27 291.66 128.9 293.21 127.13 295.19 125.93 297.17 124.74 299.46 124.15 302.06 124.15 304.25 124.15 306.15 124.62 307.75 125.57 309.35 126.52 310.64 127.77 311.61 129.33L311.61 112.76 318.56 112.76 318.56 156.06 311.97 156.06 311.62 151.56C310.51 153.08 309.1 154.3 307.41 155.23 305.72 156.16 303.68 156.61 301.3 156.61ZM303.09 151.16C305.15 151.16 306.89 150.64 308.3 149.6 309.72 148.56 310.82 147.33 311.61 145.89L311.61 135.24C310.86 133.67 309.82 132.34 308.51 131.24 307.19 130.13 305.56 129.58 303.6 129.58 301.11 129.58 299.21 130.49 297.91 132.33 296.6 134.16 295.95 136.78 295.95 140.19 295.95 143.83 296.57 146.57 297.8 148.41 299.03 150.24 300.8 151.16 303.09 151.16Z" fill="#004539"/><path d="M336.61 156.6C334.81 156.6 333.15 156.26 331.64 155.58 330.13 154.91 328.91 153.89 327.99 152.53 327.07 151.17 326.61 149.47 326.61 147.43 326.61 144.58 327.48 142.42 329.23 140.96 330.98 139.5 333.43 138.51 336.6 137.97 339.76 137.43 343.47 137.13 347.71 137.07L347.71 135.14C347.71 132.8 347.13 131.19 345.97 130.32 344.81 129.45 343.34 129 341.56 129 339.63 129 338.02 129.47 336.74 130.42 335.46 131.37 334.81 132.87 334.81 134.96L328.22 134.96C328.22 132.35 328.78 130.25 329.91 128.67 331.04 127.09 332.6 125.95 334.61 125.24 336.62 124.53 338.94 124.18 341.57 124.18 343.35 124.18 345.02 124.34 346.59 124.66 348.16 124.98 349.53 125.54 350.72 126.35 351.91 127.15 352.84 128.26 353.52 129.66 354.2 131.07 354.53 132.86 354.53 135.05L354.53 156.05 348.03 156.05 347.77 151.64C346.4 153.18 344.79 154.4 342.96 155.27 341.13 156.14 339.01 156.59 336.61 156.59ZM338.7 151.64C340.59 151.64 342.3 151.18 343.85 150.26 345.4 149.34 346.66 148.21 347.65 146.88L347.65 141.19C342.55 141.21 338.92 141.68 336.78 142.61 334.64 143.54 333.56 145.02 333.56 147.08 333.56 148.54 334.01 149.66 334.93 150.46 335.85 151.26 337.1 151.65 338.71 151.65Z" fill="#004539"/></g></g><path d="M101.34 57.09 120.47 156.03 106.29 156.03C106.29 156.03 87.03 59.9 87.03 59.9 86.63 57.92 83.79 57.92 83.4 59.9L64.18 156.06 50.01 156.06C50.01 156.06 69.11 57.1 69.11 57.1 72.53 39.36 97.92 39.36 101.35 57.1Z" fill="#FF7700"/></svg>